<?xml version="1.0" encoding="UTF-8"?>
<svg width="800" height="800" viewBox="0 0 800 800" fill="none" xmlns="http://www.w3.org/2000/svg">
  <!-- Background Circle -->
  <circle cx="400" cy="400" r="350" fill="#007AFF20"/>
  
  <!-- Light Bulb -->
  <path d="M400 200C344.8 200 300 244.8 300 300C300 355.2 344.8 400 400 400C455.2 400 500 355.2 500 300C500 244.8 455.2 200 400 200Z" fill="#007AFF"/>
  <path d="M400 400V500" stroke="#007AFF" stroke-width="20" stroke-linecap="round"/>
  <path d="M350 500H450" stroke="#007AFF" stroke-width="20" stroke-linecap="round"/>
  
  <!-- Sparkles -->
  <circle cx="300" cy="250" r="15" fill="#FFD700"/>
  <circle cx="500" cy="250" r="15" fill="#FFD700"/>
  <circle cx="400" cy="150" r="15" fill="#FFD700"/>
  
  <!-- Idea Lines -->
  <path d="M250 350C250 350 300 300 350 350" stroke="#007AFF" stroke-width="8" stroke-linecap="round"/>
  <path d="M450 350C450 350 500 300 550 350" stroke="#007AFF" stroke-width="8" stroke-linecap="round"/>
</svg> 