<?xml version="1.0" encoding="UTF-8"?>
<svg width="800" height="800" viewBox="0 0 800 800" fill="none" xmlns="http://www.w3.org/2000/svg">
  <!-- Background Circle -->
  <circle cx="400" cy="400" r="350" fill="#007AFF20"/>
  
  <!-- Cloud Storage -->
  <path d="M300 300C300 300 350 250 400 250C450 250 500 300 500 300" stroke="#007AFF" stroke-width="20" stroke-linecap="round"/>
  <path d="M250 350C250 350 300 300 400 300C500 300 550 350 550 350" stroke="#007AFF" stroke-width="20" stroke-linecap="round"/>
  <path d="M200 400C200 400 300 350 400 350C500 350 600 400 600 400" stroke="#007AFF" stroke-width="20" stroke-linecap="round"/>
  
  <!-- Floating Ideas -->
  <circle cx="300" cy="200" r="15" fill="#FFD700"/>
  <circle cx="400" cy="180" r="15" fill="#FFD700"/>
  <circle cx="500" cy="200" r="15" fill="#FFD700"/>
  
  <!-- Connection Lines -->
  <path d="M300 200L300 300" stroke="#007AFF" stroke-width="4" stroke-dasharray="8 8"/>
  <path d="M400 180L400 300" stroke="#007AFF" stroke-width="4" stroke-dasharray="8 8"/>
  <path d="M500 200L500 300" stroke="#007AFF" stroke-width="4" stroke-dasharray="8 8"/>
  
  <!-- Access Arrows -->
  <path d="M200 450L250 450L250 500L300 500" stroke="#007AFF" stroke-width="8" stroke-linecap="round"/>
  <path d="M600 450L550 450L550 500L500 500" stroke="#007AFF" stroke-width="8" stroke-linecap="round"/>
</svg> 